<svg id="Layer_2" data-name="Layer 2" xmlns="http://www.w3.org/2000/svg" viewBox="0 0 685.13 2413.87"><defs><style>.cls-1,.cls-2{stroke:#000;stroke-miterlimit:10;}.cls-1{stroke-width:0.25px;}.cls-2{stroke-width:2px;}</style></defs><title>logo</title><path class="cls-1" d="M1098.16,2083.44c6.35-8.86,17-21,33.51-28.7,17.33-8.12,27.89-5.24,38.55-13.62,16.71-13.14,15.87-40,15.71-49.43-.8-45.84.89-465.51,2.72-1044-.23-3.54-1.7-20.33-15.71-32.47-20-17.31-46.27-8.55-47.34-8.17q-.69-26.24-1.36-52.48l244.56.11q-.06,25.88-.11,51.74c-14.47-3.22-35.22-5.3-48.65,6.32-13.82,12-13.54,33-13.56,39.24-2.62,681.05-3.93,1021.58-4.71,1040-.35,8-2.1,34.86,14.13,48.39,8.68,7.23,16.85,5.95,30.87,13.11,15.82,8.09,26,20.23,32.21,29.63a2269.8,2269.8,0,0,0,143.43-496.83,2265.06,2265.06,0,0,0,31.35-387.41,468.56,468.56,0,0,1-183.71,198.73c46-43,97.33-104.17,130.72-187.69,2.87-7.2,9.53-24.36,24.09-74.16,16.72-57.23,36.56-132.55,54.67-223.3a303.85,303.85,0,0,1-183.5,96.36,360.69,360.69,0,0,0,72.9-47.76c73.15-61.84,101.6-136.74,119.65-186,31.79-86.86,35-165.2,32.21-217.73-8.51,35-31.83,109.21-98.35,173.49a351,351,0,0,1-102.64,68.72C1465,753.32,1558.87,645,1601.31,475.93c47.1-187.6,3.69-341.47-17-402.19A324.93,324.93,0,0,1,1540.72,135c-57,63-118.65,80.21-159.15,102.15C1331.42,264.3,1270.7,322.07,1229.84,458a202.66,202.66,0,0,1,22.92-156.31c-28.23,33-68.15,88.9-90.94,167.34-43.41,149.4,5.64,276.3,23.38,316.94a329.85,329.85,0,0,1-42.91-313.21,688.32,688.32,0,0,0-49.56,105.19c-19.17,51.62-46.81,126-41,221.27,2.37,38.56,11.72,104.91,51.59,180.53A195,195,0,0,1,1050,920c-32.12-56.07-26.09-111.8-23.11-131-24.21,59.21-25.77,108.42-24.37,136.59,3.45,69.53,30.11,122.07,46.64,154.55,29,56.93,70.45,109.79,67.54,111.91-.53.38-2.22-1.1-2.81-1.62-47-41.66-70.52-62.48-81.7-78.87-46.07-67.5-50.32-154.84-50.82-167.91a784.73,784.73,0,0,0,0,135.53c4.91,56.7,12.56,138,57.22,228.28a538,538,0,0,0,87.93,127.44,285.4,285.4,0,0,1-158.89-229.76c-25.26,113.71-52.6,310.06,0,542.4A1226.31,1226.31,0,0,0,1098.16,2083.44Z" transform="translate(-937.44 -73.43)"/><path class="cls-2" d="M1175.22,2078.47v158h9.88a652.46,652.46,0,0,0,47.05,249.75l15.46-.87a736.9,736.9,0,0,0,46.14-248.88h9.87l9.88-158Z" transform="translate(-937.44 -73.43)"/></svg>